<?xml version="1.0" standalone="no"?>
<!DOCTYPE svg PUBLIC "-//W3C//DTD SVG 20010904//EN"
 "http://www.w3.org/TR/2001/REC-SVG-20010904/DTD/svg10.dtd">
<svg version="1.0" xmlns="http://www.w3.org/2000/svg"
 width="666.000000pt" height="666.000000pt" viewBox="0 0 666.000000 666.000000"
 preserveAspectRatio="xMidYMid meet">
<metadata>
Created by potrace 1.14, written by Peter Selinger 2001-2017
</metadata>
<g transform="translate(0.000000,666.000000) scale(0.100000,-0.100000)"
fill="#000000" stroke="none">
<path d="M2395 5290 c-212 -45 -395 -149 -571 -324 -237 -237 -337 -450 -274
-581 37 -77 111 -106 180 -70 16 8 64 59 106 113 153 193 316 331 450 381 74
28 162 28 198 0 51 -40 61 -73 60 -199 -1 -138 -20 -246 -119 -710 -120 -558
-120 -557 -120 -780 0 -213 9 -262 66 -388 113 -249 316 -373 619 -375 222 -1
397 54 587 185 96 67 245 222 322 338 57 85 170 299 213 405 9 22 15 29 12 15
-2 -14 -29 -193 -59 -399 -29 -206 -57 -377 -62 -381 -4 -4 -69 -28 -143 -55
-414 -148 -744 -323 -975 -517 -256 -216 -385 -467 -385 -751 0 -174 41 -279
154 -392 127 -127 252 -174 488 -182 173 -6 276 6 403 48 474 158 787 631 905
1373 12 72 25 149 29 171 l7 40 99 23 c55 13 227 50 383 82 316 66 337 74 374
157 40 90 33 220 -15 271 -41 44 -82 46 -249 12 -84 -17 -236 -51 -336 -76
-101 -25 -186 -43 -189 -40 -3 3 22 194 56 423 152 1023 271 1869 271 1927 0
191 -104 285 -301 274 -102 -6 -162 -36 -207 -102 -43 -65 -57 -117 -86 -343
-65 -489 -160 -864 -306 -1206 -114 -270 -235 -460 -382 -603 -151 -147 -266
-204 -413 -204 -219 0 -302 87 -312 330 -6 131 1 174 78 515 122 537 159 767
161 1000 1 239 -39 370 -146 477 -125 125 -332 168 -571 118z m1540 -3296
c-62 -385 -160 -643 -306 -799 -110 -117 -218 -167 -369 -168 -102 -1 -157 20
-211 80 -47 52 -64 102 -63 188 3 233 193 449 556 632 105 53 399 175 406 168
2 -1 -4 -47 -13 -101z"/>
</g>
</svg>
