<svg version="1.1" viewBox="0.0 0.0 1920.0 1080.0" fill="none" stroke="none" stroke-linecap="square" stroke-miterlimit="10" xmlns:xlink="http://www.w3.org/1999/xlink" xmlns="http://www.w3.org/2000/svg"><clipPath id="p.0"><path d="m0 0l1920.0 0l0 1080.0l-1920.0 0l0 -1080.0z" clip-rule="nonzero"/></clipPath><g clip-path="url(#p.0)"><path fill="#1b212c" d="m0 0l1920.0 0l0 1080.0l-1920.0 0z" fill-rule="evenodd"/><path fill="#ffffff" fill-opacity="0.0346" d="m1427.8964 0l492.10364 491.72964l0 502.2861l-994.77167 -994.01575z" fill-rule="evenodd"/><path fill="#ffffff" fill-opacity="0.0346" d="m1917.8005 0l0 0l0 902.48816l-900.0945 -902.48816z" fill-rule="evenodd"/><path fill="#ffffff" fill-opacity="0.0731" d="m1264.6298 429.45267l-84.91333 -84.91339l0 -84.91336l169.82666 169.82675z" fill-rule="evenodd"/><path fill="#ffffff" fill-opacity="0.0731" d="m1398.1432 388.10617l-84.91333 -84.91339l-84.91345 0l169.82678 169.82678z" fill-rule="evenodd"/><path fill="#ffffff" fill-opacity="0.0731" d="m1342.0432 688.3497l-84.91333 -84.91339l0 -84.91339l169.82678 169.82678z" fill-rule="evenodd"/><path fill="#ffffff" fill-opacity="0.0731" d="m1476.3076 647.0032l-84.91345 -84.91339l-84.91333 0l169.82678 169.82678z" fill-rule="evenodd"/><path fill="#ffffff" fill-opacity="0.0731" d="m1486.5599 560.8017l-84.91345 -84.91342l0 -84.91336l169.82678 169.82678z" fill-rule="evenodd"/><path fill="#82c7a5" d="m1620.3463 519.4552l-84.91345 -84.91342l-84.91333 0l169.82678 169.82681z" fill-rule="evenodd"/><path fill="#ffffff" fill-opacity="0.0731" d="m1525.5729 690.10187l-84.91345 -84.91339l0 -84.91339l169.82678 169.82678z" fill-rule="evenodd"/><path fill="#ffffff" fill-opacity="0.0731" d="m1842.3236 650.365l-84.91333 -84.91339l-84.91345 0l169.82678 169.82678z" fill-rule="evenodd"/><path fill="#ffffff" fill-opacity="0.0731" d="m1880.0802 779.66516l-84.91333 -84.91333l-84.91345 0l169.82678 169.82672z" fill-rule="evenodd"/><path fill="#ffffff" fill-opacity="0.0731" d="m1564.7242 819.69867l-84.91333 -84.91339l0 -84.91339l169.82666 169.82678z" fill-rule="evenodd"/><path fill="#ffffff" fill-opacity="0.0731" d="m1697.7322 778.3521l-84.91345 -84.91339l-84.91333 0l169.82678 169.82678z" fill-rule="evenodd"/><path fill="#0145ac" d="m1602.4806 948.99884l-84.91333 -84.91339l0 -84.91339l169.82678 169.82678z" fill-rule="evenodd"/><path fill="#ffffff" fill-opacity="0.0731" d="m1736.7451 907.6523l-84.91345 -84.91333l-84.91333 0l169.82678 169.82672z" fill-rule="evenodd"/><path fill="#ffffff" fill-opacity="0.0731" d="m1786.2238 950.60846l-84.91333 -84.91339l0 -84.91339l169.82666 169.82678z" fill-rule="evenodd"/><path fill="#ffffff" fill-opacity="0.0731" d="m1919.8599 909.26196l-84.91333 -84.91339l-84.91345 0l169.82678 169.82678z" fill-rule="evenodd"/><path fill="#ffffff" fill-opacity="0.0731" d="m1825.2367 1079.9086l-84.91333 -84.91333l0 -84.91339l169.82678 169.82672z" fill-rule="evenodd"/></g></svg>